<svg width="24" height="24" viewBox="0 0 24 24" fill="none" xmlns="http://www.w3.org/2000/svg">
<path d="M8.14613 8.10574C8.45957 7.87649 8.5278 7.43655 8.29854 7.12312C8.06928 6.8097 7.62935 6.74146 7.31592 6.97071L8.14613 8.10574ZM4.73289 17.625L4.03858 17.736C4.0896 18.0551 4.35159 18.2984 4.67363 18.3256C4.99567 18.3529 5.2948 18.157 5.39869 17.851L4.73289 17.625ZM10.6223 13.3487C10.9903 13.2246 11.188 12.8257 11.0639 12.4577C10.9398 12.0897 10.5409 11.892 10.1729 12.0161L10.6223 13.3487ZM13.7563 4.6512L13.9834 4.93814L15.0859 4.06525L14.8588 3.7783L13.7563 4.6512ZM15.7904 5.89278L16.1461 5.91498L16.2336 4.51145L15.878 4.48925L15.7904 5.89278ZM17.0253 7.72699L16.8348 8.03657L18.0323 8.77364L18.2228 8.46406L17.0253 7.72699ZM16.5367 10.07L16.6301 10.4273L17.9906 10.0716L17.8972 9.71432L16.5367 10.07ZM15.3131 11.8455L14.9682 11.75L14.5925 13.105L14.9374 13.2007L15.3131 11.8455ZM12.957 12.0723L12.659 12.2708L13.4392 13.4408L13.7372 13.2422L12.957 12.0723ZM10.9663 11.3357L10.9436 10.967L9.54004 11.0532L9.56269 11.4218L10.9663 11.3357ZM10.0264 9.12801L9.74892 8.89344L8.84115 9.96745L9.11867 10.2021L10.0264 9.12801ZM10.02 6.89683L10.3509 6.76459L9.82911 5.45873L9.49817 5.59098L10.02 6.89683ZM11.7696 5.29335L11.896 4.94974L10.5762 4.46432L10.4498 4.80793L11.7696 5.29335ZM10.3509 6.76459C10.657 6.6423 11.0128 6.51573 11.2753 6.24249L10.2614 5.26806C10.269 5.26017 10.2656 5.26991 10.2018 5.30174C10.1262 5.33944 10.0213 5.38195 9.82911 5.45873L10.3509 6.76459ZM10.4498 4.80793C10.3767 5.00673 10.3352 5.11804 10.298 5.19883C10.2658 5.26904 10.2545 5.27517 10.2614 5.26806L11.2753 6.24249C11.5346 5.97272 11.6524 5.61205 11.7696 5.29335L10.4498 4.80793ZM9.74892 8.89344C9.19477 8.42507 8.84123 8.12385 8.62505 7.87894C8.52208 7.76225 8.48099 7.69133 8.46544 7.65505C8.45875 7.63942 8.45839 7.63384 8.45873 7.63614C8.45915 7.63909 8.45892 7.64205 8.45895 7.64186L7.06738 7.43921C6.98401 8.01171 7.26405 8.46201 7.57074 8.8095C7.87162 9.15039 8.3226 9.52917 8.84115 9.96745L9.74892 8.89344ZM9.49817 5.59098C8.88123 5.83749 8.34048 6.05143 7.95355 6.27932C7.55518 6.51395 7.15174 6.85985 7.06738 7.43921L8.45895 7.64186C8.45897 7.64165 8.45818 7.64584 8.45587 7.65079C8.45379 7.65523 8.45405 7.65263 8.46269 7.64252C8.48358 7.61801 8.53831 7.56694 8.6672 7.49103C8.93913 7.33086 9.35776 7.16145 10.02 6.89683L9.49817 5.59098ZM10.9436 10.967C10.9224 10.6211 10.9125 10.247 10.7466 9.91384L9.48766 10.5403C9.48773 10.5405 9.48943 10.5435 9.49236 10.5541C9.49575 10.5664 9.50088 10.589 9.50652 10.6295C9.51907 10.7197 9.52697 10.8403 9.54004 11.0532L10.9436 10.967ZM9.11867 10.2021C9.27928 10.3378 9.36864 10.4139 9.43143 10.4762C9.45937 10.5039 9.47347 10.5206 9.48047 10.5297C9.48645 10.5375 9.48761 10.5402 9.48766 10.5403L10.7466 9.91384C10.5797 9.57818 10.2863 9.34768 10.0264 9.12801L9.11867 10.2021ZM12.659 12.2708C12.0629 12.6684 11.684 12.9187 11.3987 13.0517C11.1214 13.1811 11.1254 13.1074 11.1884 13.1408L10.5294 14.3831C11.0555 14.6622 11.5789 14.5194 11.993 14.3262C12.3992 14.1367 12.8839 13.8112 13.4392 13.4408L12.659 12.2708ZM9.56269 11.4218C9.60506 12.1116 9.63987 12.7066 9.73222 13.1546C9.82494 13.6043 10.0142 14.1098 10.5294 14.3831L11.1884 13.1408C11.2405 13.1684 11.1763 13.1947 11.1095 12.8707C11.0423 12.5447 11.0115 12.071 10.9663 11.3357L9.56269 11.4218ZM14.9682 11.75C14.6514 11.6621 14.2877 11.5458 13.9137 11.6057L14.1363 12.9942C14.1217 12.9966 14.1283 12.9903 14.1992 13.0038C14.2823 13.0196 14.3923 13.0495 14.5925 13.105L14.9682 11.75ZM13.7372 13.2422C13.91 13.1269 14.0052 13.0641 14.0794 13.023C14.1425 12.988 14.1507 12.9919 14.1363 12.9942L13.9137 11.6057C13.5398 11.6656 13.2305 11.8898 12.957 12.0723L13.7372 13.2422ZM16.6301 10.4273C16.8164 11.14 16.9348 11.5997 16.9726 11.9303C17.0101 12.2591 16.9411 12.2544 16.9817 12.2122L17.9956 13.1866C18.3995 12.7662 18.4219 12.2272 18.3697 11.7708C18.3178 11.3164 18.1654 10.7402 17.9906 10.0716L16.6301 10.4273ZM14.9374 13.2007C15.5805 13.379 16.1425 13.5368 16.5874 13.5898C17.0415 13.6439 17.583 13.616 17.9956 13.1866L16.9817 12.2122C17.0309 12.161 17.0573 12.2296 16.7539 12.1934C16.4413 12.1562 16.0035 12.0369 15.3131 11.8455L14.9374 13.2007ZM16.8348 8.03657C16.6563 8.32654 16.4495 8.63704 16.3955 9.00796L17.7871 9.21061C17.7872 9.21046 17.7874 9.20751 17.7906 9.19821C17.7945 9.18733 17.8027 9.16699 17.8206 9.13192C17.8609 9.05314 17.9221 8.9528 18.0323 8.77364L16.8348 8.03657ZM17.8972 9.71432C17.8433 9.50794 17.8132 9.39094 17.797 9.30129C17.7897 9.26107 17.7875 9.23796 17.787 9.22528C17.7864 9.21427 17.7871 9.21081 17.7871 9.21061L16.3955 9.00796C16.3419 9.37621 16.4491 9.73478 16.5367 10.07L17.8972 9.71432ZM16.1461 5.91498C16.8576 5.95939 17.3082 5.98952 17.6164 6.05668C17.7625 6.08851 17.8303 6.11989 17.8577 6.13658C17.869 6.14346 17.8699 6.1458 17.8666 6.14216C17.8627 6.13813 17.8607 6.13435 17.8608 6.13449L19.1197 5.50803C18.8588 4.9837 18.3674 4.78107 17.9158 4.68266C17.477 4.58707 16.8966 4.55285 16.2336 4.51145L16.1461 5.91498ZM18.2228 8.46406C18.5789 7.88558 18.8892 7.38484 19.0687 6.96701C19.2517 6.54122 19.3774 6.02597 19.1197 5.50803L17.8608 6.13449C17.8608 6.13462 17.8596 6.13187 17.8592 6.12892C17.8587 6.12664 17.8601 6.13206 17.8587 6.14904C17.8552 6.18843 17.8383 6.26872 17.7768 6.4118C17.6477 6.71211 17.4057 7.10884 17.0253 7.72699L18.2228 8.46406ZM13.9834 4.93814C14.1941 5.20423 14.4185 5.51023 14.7492 5.6856L15.4082 4.44331C15.417 4.44799 15.4045 4.44573 15.3519 4.38916C15.2915 4.32403 15.2174 4.23127 15.0859 4.06525L13.9834 4.93814ZM15.878 4.48925C15.6715 4.47636 15.5586 4.46876 15.4751 4.45657C15.4046 4.44629 15.3983 4.43811 15.4082 4.44331L14.7492 5.6856C15.084 5.8632 15.4616 5.87224 15.7904 5.89278L15.878 4.48925ZM14.8588 3.7783C14.4344 3.24221 14.0679 2.77633 13.738 2.4655C13.4071 2.15364 12.9549 1.84464 12.3683 1.93865L12.5909 3.32719C12.515 3.33934 12.5377 3.26668 12.7736 3.48891C13.0105 3.71219 13.3025 4.07815 13.7563 4.6512L14.8588 3.7783ZM11.896 4.94974C12.1484 4.26355 12.3118 3.82452 12.4673 3.53829C12.6221 3.25333 12.6665 3.31505 12.5909 3.32719L12.3683 1.93865C11.7819 2.03265 11.4487 2.46735 11.2317 2.86693C11.0152 3.26524 10.8123 3.82234 10.5762 4.46432L11.896 4.94974ZM7.31592 6.97071C4.87223 8.75815 3.13879 12.1073 4.03858 17.736L5.42719 17.514C4.59313 12.2965 6.21168 9.52069 8.14613 8.10574L7.31592 6.97071ZM5.39869 17.851C6.07044 15.8722 8.15796 14.1798 10.6223 13.3487L10.1729 12.0161C7.4691 12.928 4.93016 14.8566 4.06708 17.399L5.39869 17.851Z" fill="#00E5FF"/>
<path d="M10.3883 15.75C10.3883 15.75 10.9814 17.0539 11.7127 17.5024C12.4439 17.9508 13.875 17.8883 13.875 17.8883C13.875 17.8883 12.5711 18.4814 12.1226 19.2127C11.6742 19.9439 11.7367 21.375 11.7367 21.375C11.7367 21.375 11.1436 20.0711 10.4123 19.6226C9.68111 19.1742 8.25 19.2367 8.25 19.2367C8.25 19.2367 9.55389 18.6436 10.0023 17.9123C10.4508 17.1811 10.3883 15.75 10.3883 15.75Z" stroke="#00E5FF" stroke-width="1.5" stroke-linejoin="round"/>
<path d="M18.0745 14.8125C18.0745 14.8125 17.6791 15.6817 17.1916 15.9807C16.7041 16.2797 15.75 16.238 15.75 16.238C15.75 16.238 16.6192 16.6334 16.9182 17.1209C17.2172 17.6084 17.1755 18.5625 17.1755 18.5625C17.1755 18.5625 17.5709 17.6933 18.0584 17.3943C18.5459 17.0953 19.5 17.137 19.5 17.137C19.5 17.137 18.6308 16.7416 18.3318 16.2541C18.0328 15.7666 18.0745 14.8125 18.0745 14.8125Z" stroke="#00E5FF" stroke-width="1.5" stroke-linejoin="round"/>
</svg>
